<?xml version="1.0" encoding="UTF-8" standalone="no"?>
<!DOCTYPE svg PUBLIC "-//W3C//DTD SVG 1.1//EN" "http://www.w3.org/Graphics/SVG/1.1/DTD/svg11.dtd">
<svg width="100%" height="100%" viewBox="0 0 5906 5906" version="1.1" xmlns="http://www.w3.org/2000/svg" xmlns:xlink="http://www.w3.org/1999/xlink" xml:space="preserve" xmlns:serif="http://www.serif.com/" style="fill-rule:evenodd;clip-rule:evenodd;stroke-linejoin:round;stroke-miterlimit:2;">
    <g transform="matrix(1.08528,0,0,1.08528,0,147.638)">
        <circle cx="544.147" cy="544.147" r="544.147" style="fill:rgb(30,235,156);"/>
    </g>
    <g>
        <g transform="matrix(0.813959,0,0,0.813959,1402.56,295.276)">
            <circle cx="544.147" cy="544.147" r="544.147" style="fill:white;"/>
        </g>
        <g transform="matrix(0.813959,0,0,0.813959,5019.69,295.276)">
            <circle cx="544.147" cy="544.147" r="544.147" style="fill:white;"/>
        </g>
        <g transform="matrix(3.0625,0,0,1.5,1845.47,-812.008)">
            <rect x="0" y="738.189" width="1181.1" height="590.551" style="fill:white;"/>
        </g>
    </g>
    <g transform="matrix(1,0,0,1,9.09495e-13,1476.38)">
        <g transform="matrix(0.813959,0,0,0.813959,1402.56,295.276)">
            <circle cx="544.147" cy="544.147" r="544.147" style="fill:white;"/>
        </g>
        <g transform="matrix(0.813959,0,0,0.813959,5019.69,295.276)">
            <circle cx="544.147" cy="544.147" r="544.147" style="fill:white;"/>
        </g>
        <g transform="matrix(3.0625,0,0,1.5,1845.47,-812.008)">
            <rect x="0" y="738.189" width="1181.1" height="590.551" style="fill:white;"/>
        </g>
    </g>
    <g transform="matrix(1,0,0,1,9.09495e-13,2952.76)">
        <g transform="matrix(0.813959,0,0,0.813959,1402.56,295.276)">
            <circle cx="544.147" cy="544.147" r="544.147" style="fill:white;"/>
        </g>
        <g transform="matrix(0.813959,0,0,0.813959,5019.69,295.276)">
            <circle cx="544.147" cy="544.147" r="544.147" style="fill:white;"/>
        </g>
        <g transform="matrix(3.0625,0,0,1.5,1845.47,-812.008)">
            <rect x="0" y="738.189" width="1181.1" height="590.551" style="fill:white;"/>
        </g>
    </g>
    <g transform="matrix(1,0,0,1,-9.09495e-13,4429.13)">
        <g transform="matrix(0.813959,0,0,0.813959,1402.56,295.276)">
            <circle cx="544.147" cy="544.147" r="544.147" style="fill:white;"/>
        </g>
        <g transform="matrix(0.813959,0,0,0.813959,5019.69,295.276)">
            <circle cx="544.147" cy="544.147" r="544.147" style="fill:white;"/>
        </g>
        <g transform="matrix(3.0625,0,0,1.5,1845.47,-812.008)">
            <rect x="0" y="738.189" width="1181.1" height="590.551" style="fill:white;"/>
        </g>
    </g>
    <g transform="matrix(1.08528,0,0,1.08528,0,1624.02)">
        <circle cx="544.147" cy="544.147" r="544.147" style="fill:rgb(30,235,156);"/>
    </g>
    <g transform="matrix(1.08528,0,0,1.08528,0,3100.39)">
        <circle cx="544.147" cy="544.147" r="544.147" style="fill:rgb(30,235,156);"/>
    </g>
    <g transform="matrix(1.08528,0,0,1.08528,0,4576.77)">
        <circle cx="544.147" cy="544.147" r="544.147" style="fill:rgb(30,235,156);"/>
    </g>
</svg>
